<svg width="4000" height="4000" xmlns="http://www.w3.org/2000/svg">
    <defs>
        <linearGradient x1="0" y1="0" x2="1" y2="0" gradientUnits="userSpaceOnUse" gradientTransform="rotate(90 1810.95 13320.85) scale(7271.36)" spreadMethod="pad" id="b">
            <stop style="stop-opacity:1;stop-color:#ff7300" offset="0"/>
            <stop style="stop-opacity:1;stop-color:#fec401" offset="1"/>
        </linearGradient>
        <clipPath clipPathUnits="userSpaceOnUse" id="a">
            <path d="M15131.8 21636.3c3746.6 0 6778.5-3032 6778.5-6778.5 0-2768.3-1658.2-5155-4044.9-6202.6h-5467.2c-2379.7 1047.6-4044.85 3434.3-4044.85 6202.6 0 3746.5 3038.85 6778.5 6778.45 6778.5z"/>
        </clipPath>
    </defs>
    <path d="M30000 0H0v30000h30000V0" style="fill:#fff;fill-opacity:1;fill-rule:nonzero;stroke:none" transform="matrix(.13333 0 0 -.13333 0 4000)"/>
    <g clip-path="url(#a)" transform="matrix(.13333 0 0 -.13333 0 4000)">
        <path d="M15131.8 21636.3c3746.6 0 6778.5-3032 6778.5-6778.5 0-2768.3-1658.2-5155-4044.9-6202.6h-5467.2c-2379.7 1047.6-4044.85 3434.3-4044.85 6202.6 0 3746.5 3038.85 6778.5 6778.45 6778.5" style="fill:url(#b);fill-opacity:1;fill-rule:nonzero;stroke:none"/>
    </g>
    <path d="M15631.4 8787c832.5 90.2 1498.6 138.7 1748.3 201.2 249.8 62.4 596.7 312.2 659.2 319.1 62.4 7 756.2-76.3 1047.6-6.9 284.5 62.4 818.7 444 936.7 506.5 117.9 62.4 749.3 69.3 749.3 69.3s367.7-228.9 603.6-568.9c228.9-346.9 1033.7-388.5 1165.6-416.3 138.7-27.7 1470.8-173.4 1568-215 104-41.7 298.3-326.1 298.3-326.1H14181.3c249.8 111 457.9 117.9 693.8 180.4 215.1 55.5 464.9 228.9 756.3 256.7" style="fill:#27304d;fill-opacity:1;fill-rule:nonzero;stroke:none" transform="matrix(.13333 0 0 -.13333 0 4000)"/>
    <path d="M7402.84 8787c888.07 90.2 1595.74 138.7 1866.33 201.2 270.58 62.4 638.3 312.2 700.74 319.1 69.39 7 811.79-76.3 1116.99-6.9 305.3 62.4 874.2 444 999.1 506.5 124.9 62.4 797.9 69.3 797.9 69.3s395.5-228.9 645.2-568.9c249.8-346.9 1103.2-388.5 1248.9-416.3 145.7-27.7 1568-173.4 1672-215 111.1-41.7 319.2-326.1 319.2-326.1H5855.65c263.65 111 485.66 117.9 742.37 180.4 228.96 55.5 492.6 228.9 804.82 256.7M16692.9 11416.5c346.9 76.3 693.8 166.5 1012.9 256.7-242.8-6.9-464.8 6.9-575.8 13.9-131.8 6.9-312.2-131.8-437.1-270.6zm4717.9 2199.4s-1644.4-1665.2-3587-2511.6c-1935.7-839.5-2886.2-1061.5-3247-1054.6-353.9 13.9-2220.2 888.1-2969.5 1803.9-13.9 13.9-27.8 34.7-34.7 48.6-423.2 263.6-922.8 631.3-971.3 700.7-62.5 83.3-97.2 187.3 90.2 353.8 34.7 34.7 62.4 69.4 83.2 104.1-804.79 1255.8-1942.63 3101.3-2331.16 3718.8-173.45 291.4 62.44 353.8 111.01 284.5l2310.35-3593.9c13.9 6.9 34.7 0 41.7-27.8 13.8-27.7 27.7-62.4 41.6-104.1l13.8-20.8c0 20.8 7 41.7 13.9 62.5 13.9 90.2 69.4 97.1 83.3 55.5 13.9-20.8 13.9-76.3 13.9-131.9 13.8 34.7 20.8 69.4 27.7 90.2 13.9 48.6 69.4 48.6 76.3 13.9v-104.1c7 27.8 13.9 48.6 20.8 62.5 20.9 69.4 97.2 69.4 83.3-13.9-6.9-41.6-20.8-97.1-34.7-145.7 27.8 34.7 62.5 62.5 104.1 69.4 90.2 13.9 117.9-55.5 117.9-55.5s-97.1-27.8-180.4-138.8c83.3-34.7 270.6-41.6 319.2-145.7 13.9-34.7 34.7-62.4 62.4-83.2 76.4 27.7 187.4 69.4 319.2 55.5 104.1-7 208.1-48.6 298.3-104.1 13.9 6.9 20.8 6.9 27.8 13.9 27.7 0 138.7-7 152.6-7 6.9-6.9 104.1-90.1 118-138.7 6.9-27.8-34.7-48.6-76.4-55.5 13.9-13.9 20.9-27.8 27.8-34.7 104.1-152.6 117.9-187.3 97.1-284.5-20.8-104-48.5-166.5-34.7-208.1 7-34.7 41.7-55.5 242.9-69.4l13.8-6.9c90.2 6.9 187.4 20.8 263.7 34.7 235.9 48.5 319.1 62.4 395.5 6.9 76.3-55.5 152.6-194.3 305.2-277.5 159.6-83.3 402.4-222 603.6-298.4 229-83.2 569 48.6 797.9 111 0 0 811.8 1019.9 957.5 1096.3 97.1 41.6 228.9 0 360.7-69.4 249.8-124.9 430.2-215.1 693.9-319.2 97.1 0 222 7 360.7 13.9 673 55.5 985.2 69.4 1269.7 138.8 277.5 69.4 326.1 117.9 589.7 194.2 270.6 76.4 346.9 215.1 423.2 263.7 55.5 41.6 166.6-48.6 97.2-194.3 846.4 568.9 1692.9 1290.5 1796.9 1373.8 83.3 69.3 249.8-97.2 173.5-229-41.6-83.3-173.5-187.3-534.2-242.8" style="fill:#27304d;fill-opacity:1;fill-rule:nonzero;stroke:none" transform="matrix(.13333 0 0 -.13333 0 4000)"/>
    <path d="M11912.6 9293.5c-4974.62 3233.1-2289.59 9643.8-2289.59 9643.8l-339.96-41.6c-1907.97-3177.6-1214.16-7833 1012.95-9865.9l1616.6 263.7" style="fill:#27304d;fill-opacity:1;fill-rule:nonzero;stroke:none" transform="matrix(.13333 0 0 -.13333 0 4000)"/>
    <path d="m9435.68 19360.6 20.82 6.9v27.8c-6.94-13.9-13.88-27.8-20.82-34.7zm208.14-735.5c194.27-215 1103.18-1241.9 1054.58-2317.3-62.4-1200.3-881.13-2130-881.13-2130s242.83 1082.4 222.03 1686c-131.83-104.1-235.9-194.3-235.9-194.3s90.19 728.5 111.01 1214.2l-201.21-333c-20.81 541.1-97.13 1484.7-374.65 2102.2-485.66-374.7-943.58-1047.7-1137.84-1547.2l-76.32 353.8c-138.76-437.1-284.46-1110-284.46-1110s-62.45 111-152.63 242.8c-201.21-534.2-326.09-1575-326.09-1575-728.5 1803.9-69.39 3087.5 1422.29 3774.3-513.41-180.3-1019.89-485.6-1339.03-763.1l97.13 353.8c-326.09-340-770.13-881.1-770.13-881.1s-6.94 131.8-34.69 284.4c-430.16-388.5-1012.95-1262.7-1012.95-1262.7 104.06 1845.5 1200.28 2719.7 2789.09 2768.3-374.65 124.9-784 180.4-1110.08 159.6l333.02 242.8c-450.97-62.5-1123.97-235.9-1123.97-235.9s97.14 124.9 208.15 277.5c-548.11-41.6-1568-409.3-1568-409.3 1463.93 1505.5 2733.59 1422.3 3725.73 444-97.13 277.5-235.9 534.2-374.65 707.7l242.83-48.6c-208.14 215.1-561.98 492.6-561.98 492.6s97.13 13.9 208.14 41.7c-235.9 277.5-818.69 638.3-818.69 638.3s832.56 20.8 1366.79-485.7c284.46-270.6 367.72-721.6 388.53-1089.3 187.33 326.1 555.05 839.5 1033.76 943.6 721.6 166.5 1422.3-291.4 1422.3-291.4s-679.9 0-1033.8-117.9c83.3-83.3 159.6-145.7 159.6-145.7s-444-55.6-735.4-124.9l159.6-62.5c839.5 367.7 1685.9 166.5 2414.4-908.9 0 0-735.4 367.8-1158.7 444.1 48.6-124.9 104.1-222 104.1-222s-499.5 187.3-839.5 277.5l208.2-215.1c-374.7 62.4-929.7 20.8-1352.96-152.6 1921.86 395.4 3420.46-256.7 3711.86-2636.5 0 0-693.8 950.5-1193.3 1325.2-13.9-194.3-13.9-353.9-13.9-353.9s-513.4 562-895 895l131.8-409.3c-374.7 277.5-964.4 541.2-1533.3 645.2 2157.7-895 3323.3-2400.5 2317.3-4565.2 0 0-173.5 1221.1-451 1845.5-117.9-152.6-208.1-284.4-208.1-284.4s-201.2 790.9-388.6 1304.3l-97.1-416.3c-263.6 589.8-888.1 1380.7-1547.18 1824.7M22104.6 16182.9c381.6-145.7 1054.6-471.7 1332.1-1040.7 409.3-825.6 194.2-1762.2 194.2-1762.2s-235.9 811.7-471.7 1207.2c-48.6-118-90.2-222-90.2-222s-208.2 520.3-374.7 846.4l-6.9-291.4c-201.2 326.1-589.8 735.4-992.2 985.2-27.7-34.7-62.4-69.4-90.2-104.1l-13.8 55.6c-222.1-409.4-367.8-922.8-395.5-1297.5l-138.8 256.7c0-374.6 48.6-936.6 48.6-936.6s-83.3 69.4-180.4 152.6c-34.7-464.8 117.9-1304.3 117.9-1304.3s-596.6 721.6-610.5 1651.2c-6.9 589.8 367.7 1165.6 645.2 1505.6-353.8-208.1-679.9-506.5-874.2-763.2l7 333c-215.1-333-478.8-874.1-478.8-874.1s-34.6 117.9-90.1 263.6c-284.5-395.5-610.6-1262.7-610.6-1262.7-277.5 1817.7 686.9 2650.3 2192.4 2816.8-333 138.8-777 173.5-1082.3 124.9l180.4 173.5c-277.5-69.4-693.8-215.1-693.8-215.1s41.6 76.3 90.2 180.4c-346.9-62.5-957.5-353.9-957.5-353.9 624.5 874.2 1325.2 1026.9 1998.2 721.6l131.8 48.6c-235.9 62.4-596.7 111-596.7 111s62.5 48.5 138.8 117.9c-284.5 97.1-839.5 104.1-839.5 104.1s582.8 367.7 1165.6 228.9c388.5-90.2 666-513.4 811.7-777 27.8 291.4 111 659.1 353.9 881.1 450.9 409.3 1130.9 388.5 1130.9 388.5s-485.7-291.4-693.8-513.4c97.1-27.7 173.4-41.6 173.4-41.6s-298.3-222-471.8-388.5l201.2 27.7c-124.9-131.8-242.8-340-333-562 777.1 811.8 1741.5 902 2816.9-284.4 0 0-763.2 270.6-1186.4 291.4 83.2-124.9 152.6-222.1 152.6-222.1s-513.4 124.9-846.5 166.6l242.9-194.3c-291.4 13.9-679.9-69.4-1006-229" style="fill:#27304d;fill-opacity:1;fill-rule:nonzero;stroke:none" transform="matrix(.13333 0 0 -.13333 0 4000)"/>
    <path d="M18170.7 9217.1c4155.9 2331.2 3351.1 6945 3351.1 6945l242.8-27.7c811.8-2289.6-513.4-5640.7-2476.9-7104.6l-1117 187.3M18926.9 18736.1s-395.4-222-603.6-381.6c-208.1-166.5-235.9-235.8-367.7-298.3-124.9-62.4-152.6-69.4-152.6-69.4s-138.8-13.8-305.3 0c-166.5 13.9-249.8 13.9-492.6-48.5-249.8-62.5-374.7-55.5-374.7-55.5s55.5-48.6 305.3-48.6 388.5 48.6 520.4 48.6c138.7 0 263.6 6.9 263.6 6.9s118-111 263.7-131.8c145.7-13.9 208.1 34.7 256.7 41.6l48.5 13.9s-27.7 27.7-76.3 41.6c-48.6 6.9-124.9 69.4-124.9 69.4s263.7 256.7 388.6 360.8c124.8 104 284.4 138.7 360.7 222 69.4 90.2 90.2 228.9 90.2 228.9zm-978.2 2914s-652.2-360.8-999.1-631.3c-346.9-277.6-388.5-395.5-603.6-492.6-208.2-104.1-249.8-111-249.8-111s-228.9-20.9-506.5 0c-277.5 20.8-409.3 20.8-818.7-83.3-409.3-104.1-617.4-97.1-617.4-97.1s90.1-76.4 506.4-76.4c416.3 0 638.3 83.3 860.4 83.3 222 0 430.1 6.9 430.1 6.9s194.3-187.3 437.1-208.1c242.8-27.8 346.9 48.6 423.2 62.4 76.3 20.9 90.2 20.9 90.2 20.9s-55.5 48.5-131.8 69.3c-76.3 13.9-208.1 118-208.1 118s430.1 416.3 638.3 589.7c208.1 173.5 478.7 229 596.6 374.7 124.9 145.7 152.7 374.6 152.7 374.6zm2851.5-1332.1s-527.3-291.4-811.7-513.4c-277.6-222-312.3-319.1-485.7-402.4-173.5-83.3-208.1-90.2-208.1-90.2s-187.4-13.9-409.4 0c-228.9 20.8-333 20.8-666-62.4-340-90.2-499.6-76.4-499.6-76.4s69.4-69.3 409.4-69.3c333 0 520.3 69.3 700.7 69.3 180.4 0 346.9 7 346.9 7s159.6-152.7 360.8-173.5c194.2-20.8 277.5 41.7 339.9 55.5 62.5 20.8 76.4 20.8 76.4 20.8s-48.6 34.7-111 48.6c-62.5 13.9-166.6 104.1-166.6 104.1s347 333 520.4 471.8c166.5 145.7 388.5 187.3 485.7 312.2 97.1 117.9 117.9 298.3 117.9 298.3" style="fill:#27304d;fill-opacity:1;fill-rule:nonzero;stroke:none" transform="matrix(.13333 0 0 -.13333 0 4000)"/>
</svg>
