<?xml version="1.0" encoding="UTF-8" standalone="no"?>
<!-- Created with Inkscape (http://www.inkscape.org/) -->

<svg
   version="1.1"
   id="svg2"
   width="4000"
   height="4000"
   viewBox="0 0 4000 4000"
   sodipodi:docname="vecteezy_beach-island-landscape-logo-beach-logo-design-vector_6627306-0.eps"
   xmlns:inkscape="http://www.inkscape.org/namespaces/inkscape"
   xmlns:sodipodi="http://sodipodi.sourceforge.net/DTD/sodipodi-0.dtd"
   xmlns="http://www.w3.org/2000/svg"
   xmlns:svg="http://www.w3.org/2000/svg">
  <defs
     id="defs6">
    <clipPath
       clipPathUnits="userSpaceOnUse"
       id="clipPath20">
      <path
         d="m 15131.8,21636.3 c 3746.6,0 6778.5,-3032 6778.5,-6778.5 0,-2768.3 -1658.2,-5155 -4044.9,-6202.6 h -5467.2 c -2379.7,1047.6 -4044.85,3434.3 -4044.85,6202.6 0,3746.5 3038.85,6778.5 6778.45,6778.5 z"
         id="path18" />
    </clipPath>
    <linearGradient
       x1="0"
       y1="0"
       x2="1"
       y2="0"
       gradientUnits="userSpaceOnUse"
       gradientTransform="matrix(0,7271.36,-7271.36,0,15131.8,11509.9)"
       spreadMethod="pad"
       id="linearGradient26">
      <stop
         style="stop-opacity:1;stop-color:#ff7300"
         offset="0"
         id="stop22" />
      <stop
         style="stop-opacity:1;stop-color:#fec401"
         offset="1"
         id="stop24" />
    </linearGradient>
  </defs>
  <sodipodi:namedview
     id="namedview4"
     pagecolor="#ffffff"
     bordercolor="#000000"
     borderopacity="0.25"
     inkscape:showpageshadow="2"
     inkscape:pageopacity="0.0"
     inkscape:pagecheckerboard="0"
     inkscape:deskcolor="#d1d1d1" />
  <g
     id="g8"
     inkscape:groupmode="layer"
     inkscape:label="ink_ext_XXXXXX"
     transform="matrix(1.3333333,0,0,-1.3333333,0,4000)">
    <g
       id="g10"
       transform="scale(0.1)">
      <path
         d="M 30000,0 H 0 V 30000 H 30000 V 0"
         style="fill:#ffffff;fill-opacity:1;fill-rule:nonzero;stroke:none"
         id="path12" />
      <g
         id="g14">
        <g
           id="g16"
           clip-path="url(#clipPath20)">
          <path
             d="m 15131.8,21636.3 c 3746.6,0 6778.5,-3032 6778.5,-6778.5 0,-2768.3 -1658.2,-5155 -4044.9,-6202.6 h -5467.2 c -2379.7,1047.6 -4044.85,3434.3 -4044.85,6202.6 0,3746.5 3038.85,6778.5 6778.45,6778.5"
             style="fill:url(#linearGradient26);fill-opacity:1;fill-rule:nonzero;stroke:none"
             id="path28" />
        </g>
      </g>
      <path
         d="m 15631.4,8787 c 832.5,90.2 1498.6,138.7 1748.3,201.2 249.8,62.4 596.7,312.2 659.2,319.1 62.4,7 756.2,-76.3 1047.6,-6.9 284.5,62.4 818.7,444 936.7,506.5 117.9,62.4 749.3,69.3 749.3,69.3 0,0 367.7,-228.9 603.6,-568.9 228.9,-346.9 1033.7,-388.5 1165.6,-416.3 138.7,-27.7 1470.8,-173.4 1568,-215 104,-41.7 298.3,-326.1 298.3,-326.1 H 14181.3 c 249.8,111 457.9,117.9 693.8,180.4 215.1,55.5 464.9,228.9 756.3,256.7"
         style="fill:#27304d;fill-opacity:1;fill-rule:nonzero;stroke:none"
         id="path30" />
      <path
         d="m 7402.84,8787 c 888.07,90.2 1595.74,138.7 1866.33,201.2 270.58,62.4 638.3,312.2 700.74,319.1 69.39,7 811.79,-76.3 1116.99,-6.9 305.3,62.4 874.2,444 999.1,506.5 124.9,62.4 797.9,69.3 797.9,69.3 0,0 395.5,-228.9 645.2,-568.9 249.8,-346.9 1103.2,-388.5 1248.9,-416.3 145.7,-27.7 1568,-173.4 1672,-215 111.1,-41.7 319.2,-326.1 319.2,-326.1 H 5855.65 c 263.65,111 485.66,117.9 742.37,180.4 228.96,55.5 492.6,228.9 804.82,256.7"
         style="fill:#27304d;fill-opacity:1;fill-rule:nonzero;stroke:none"
         id="path32" />
      <path
         d="m 16692.9,11416.5 c 346.9,76.3 693.8,166.5 1012.9,256.7 -242.8,-6.9 -464.8,6.9 -575.8,13.9 -131.8,6.9 -312.2,-131.8 -437.1,-270.6 z m 4717.9,2199.4 c 0,0 -1644.4,-1665.2 -3587,-2511.6 -1935.7,-839.5 -2886.2,-1061.5 -3247,-1054.6 -353.9,13.9 -2220.2,888.1 -2969.5,1803.9 -13.9,13.9 -27.8,34.7 -34.7,48.6 -423.2,263.6 -922.8,631.3 -971.3,700.7 -62.5,83.3 -97.2,187.3 90.2,353.8 34.7,34.7 62.4,69.4 83.2,104.1 -804.79,1255.8 -1942.63,3101.3 -2331.16,3718.8 -173.45,291.4 62.44,353.8 111.01,284.5 l 2310.35,-3593.9 c 13.9,6.9 34.7,0 41.7,-27.8 13.8,-27.7 27.7,-62.4 41.6,-104.1 l 13.8,-20.8 c 0,20.8 7,41.7 13.9,62.5 13.9,90.2 69.4,97.1 83.3,55.5 13.9,-20.8 13.9,-76.3 13.9,-131.9 13.8,34.7 20.8,69.4 27.7,90.2 13.9,48.6 69.4,48.6 76.3,13.9 0,-13.9 0,-55.5 0,-104.1 7,27.8 13.9,48.6 20.8,62.5 20.9,69.4 97.2,69.4 83.3,-13.9 -6.9,-41.6 -20.8,-97.1 -34.7,-145.7 27.8,34.7 62.5,62.5 104.1,69.4 90.2,13.9 117.9,-55.5 117.9,-55.5 0,0 -97.1,-27.8 -180.4,-138.8 v 0 c 83.3,-34.7 270.6,-41.6 319.2,-145.7 13.9,-34.7 34.7,-62.4 62.4,-83.2 76.4,27.7 187.4,69.4 319.2,55.5 104.1,-7 208.1,-48.6 298.3,-104.1 13.9,6.9 20.8,6.9 27.8,13.9 27.7,0 138.7,-7 152.6,-7 6.9,-6.9 104.1,-90.1 118,-138.7 6.9,-27.8 -34.7,-48.6 -76.4,-55.5 13.9,-13.9 20.9,-27.8 27.8,-34.7 104.1,-152.6 117.9,-187.3 97.1,-284.5 -20.8,-104 -48.5,-166.5 -34.7,-208.1 7,-34.7 41.7,-55.5 242.9,-69.4 l 13.8,-6.9 c 90.2,6.9 187.4,20.8 263.7,34.7 235.9,48.5 319.1,62.4 395.5,6.9 76.3,-55.5 152.6,-194.3 305.2,-277.5 159.6,-83.3 402.4,-222 603.6,-298.4 229,-83.2 569,48.6 797.9,111 0,0 811.8,1019.9 957.5,1096.3 97.1,41.6 228.9,0 360.7,-69.4 249.8,-124.9 430.2,-215.1 693.9,-319.2 97.1,0 222,7 360.7,13.9 673,55.5 985.2,69.4 1269.7,138.8 277.5,69.4 326.1,117.9 589.7,194.2 270.6,76.4 346.9,215.1 423.2,263.7 55.5,41.6 166.6,-48.6 97.2,-194.3 846.4,568.9 1692.9,1290.5 1796.9,1373.8 83.3,69.3 249.8,-97.2 173.5,-229 -41.6,-83.3 -173.5,-187.3 -534.2,-242.8"
         style="fill:#27304d;fill-opacity:1;fill-rule:nonzero;stroke:none"
         id="path34" />
      <path
         d="m 11912.6,9293.5 c -4974.62,3233.1 -2289.59,9643.8 -2289.59,9643.8 l -339.96,-41.6 C 7375.08,15718.1 8068.89,11062.7 10296,9029.8 l 1616.6,263.7"
         style="fill:#27304d;fill-opacity:1;fill-rule:nonzero;stroke:none"
         id="path36" />
      <path
         d="m 9435.68,19360.6 20.82,6.9 v 27.8 c -6.94,-13.9 -13.88,-27.8 -20.82,-34.7 z m 208.14,-735.5 c 194.27,-215 1103.18,-1241.9 1054.58,-2317.3 -62.4,-1200.3 -881.13,-2130 -881.13,-2130 0,0 242.83,1082.4 222.03,1686 -131.83,-104.1 -235.9,-194.3 -235.9,-194.3 0,0 90.19,728.5 111.01,1214.2 l -201.21,-333 c -20.81,541.1 -97.13,1484.7 -374.65,2102.2 -485.66,-374.7 -943.58,-1047.7 -1137.84,-1547.2 l -76.32,353.8 c -138.76,-437.1 -284.46,-1110 -284.46,-1110 0,0 -62.45,111 -152.63,242.8 -201.21,-534.2 -326.09,-1575 -326.09,-1575 -728.5,1803.9 -69.39,3087.5 1422.29,3774.3 -513.41,-180.3 -1019.89,-485.6 -1339.03,-763.1 l 97.13,353.8 c -326.09,-340 -770.13,-881.1 -770.13,-881.1 0,0 -6.94,131.8 -34.69,284.4 -430.16,-388.5 -1012.95,-1262.7 -1012.95,-1262.7 104.06,1845.5 1200.28,2719.7 2789.09,2768.3 -374.65,124.9 -784,180.4 -1110.08,159.6 l 333.02,242.8 c -450.97,-62.5 -1123.97,-235.9 -1123.97,-235.9 0,0 97.14,124.9 208.15,277.5 -548.11,-41.6 -1568,-409.3 -1568,-409.3 1463.93,1505.5 2733.59,1422.3 3725.73,444 -97.13,277.5 -235.9,534.2 -374.65,707.7 l 242.83,-48.6 c -208.14,215.1 -561.98,492.6 -561.98,492.6 0,0 97.13,13.9 208.14,41.7 -235.9,277.5 -818.69,638.3 -818.69,638.3 0,0 832.56,20.8 1366.79,-485.7 284.46,-270.6 367.72,-721.6 388.53,-1089.3 187.33,326.1 555.05,839.5 1033.76,943.6 721.6,166.5 1422.3,-291.4 1422.3,-291.4 0,0 -679.9,0 -1033.8,-117.9 83.3,-83.3 159.6,-145.7 159.6,-145.7 0,0 -444,-55.6 -735.4,-124.9 l 159.6,-62.5 c 839.5,367.7 1685.9,166.5 2414.4,-908.9 0,0 -735.4,367.8 -1158.7,444.1 48.6,-124.9 104.1,-222 104.1,-222 0,0 -499.5,187.3 -839.5,277.5 l 208.2,-215.1 c -374.7,62.4 -929.7,20.8 -1352.96,-152.6 1921.86,395.4 3420.46,-256.7 3711.86,-2636.5 0,0 -693.8,950.5 -1193.3,1325.2 -13.9,-194.3 -13.9,-353.9 -13.9,-353.9 0,0 -513.4,562 -895,895 l 131.8,-409.3 c -374.7,277.5 -964.4,541.2 -1533.3,645.2 2157.7,-895 3323.3,-2400.5 2317.3,-4565.2 0,0 -173.5,1221.1 -451,1845.5 -117.9,-152.6 -208.1,-284.4 -208.1,-284.4 0,0 -201.2,790.9 -388.6,1304.3 l -97.1,-416.3 c -263.6,589.8 -888.1,1380.7 -1547.18,1824.7"
         style="fill:#27304d;fill-opacity:1;fill-rule:nonzero;stroke:none"
         id="path38" />
      <path
         d="m 22104.6,16182.9 c 381.6,-145.7 1054.6,-471.7 1332.1,-1040.7 409.3,-825.6 194.2,-1762.2 194.2,-1762.2 0,0 -235.9,811.7 -471.7,1207.2 -48.6,-118 -90.2,-222 -90.2,-222 0,0 -208.2,520.3 -374.7,846.4 l -6.9,-291.4 c -201.2,326.1 -589.8,735.4 -992.2,985.2 -27.7,-34.7 -62.4,-69.4 -90.2,-104.1 l -13.8,55.6 c -222.1,-409.4 -367.8,-922.8 -395.5,-1297.5 l -138.8,256.7 c 0,-374.6 48.6,-936.6 48.6,-936.6 0,0 -83.3,69.4 -180.4,152.6 -34.7,-464.8 117.9,-1304.3 117.9,-1304.3 0,0 -596.6,721.6 -610.5,1651.2 -6.9,589.8 367.7,1165.6 645.2,1505.6 -353.8,-208.1 -679.9,-506.5 -874.2,-763.2 l 7,333 c -215.1,-333 -478.8,-874.1 -478.8,-874.1 0,0 -34.6,117.9 -90.1,263.6 -284.5,-395.5 -610.6,-1262.7 -610.6,-1262.7 -277.5,1817.7 686.9,2650.3 2192.4,2816.8 -333,138.8 -777,173.5 -1082.3,124.9 l 180.4,173.5 c -277.5,-69.4 -693.8,-215.1 -693.8,-215.1 0,0 41.6,76.3 90.2,180.4 -346.9,-62.5 -957.5,-353.9 -957.5,-353.9 624.5,874.2 1325.2,1026.9 1998.2,721.6 l 131.8,48.6 c -235.9,62.4 -596.7,111 -596.7,111 0,0 62.5,48.5 138.8,117.9 -284.5,97.1 -839.5,104.1 -839.5,104.1 0,0 582.8,367.7 1165.6,228.9 388.5,-90.2 666,-513.4 811.7,-777 27.8,291.4 111,659.1 353.9,881.1 450.9,409.3 1130.9,388.5 1130.9,388.5 0,0 -485.7,-291.4 -693.8,-513.4 97.1,-27.7 173.4,-41.6 173.4,-41.6 0,0 -298.3,-222 -471.8,-388.5 l 201.2,27.7 c -124.9,-131.8 -242.8,-340 -333,-562 777.1,811.8 1741.5,902 2816.9,-284.4 0,0 -763.2,270.6 -1186.4,291.4 83.2,-124.9 152.6,-222.1 152.6,-222.1 0,0 -513.4,124.9 -846.5,166.6 l 242.9,-194.3 c -291.4,13.9 -679.9,-69.4 -1006,-229"
         style="fill:#27304d;fill-opacity:1;fill-rule:nonzero;stroke:none"
         id="path40" />
      <path
         d="m 18170.7,9217.1 c 4155.9,2331.2 3351.1,6945 3351.1,6945 l 242.8,-27.7 c 811.8,-2289.6 -513.4,-5640.7 -2476.9,-7104.6 l -1117,187.3"
         style="fill:#27304d;fill-opacity:1;fill-rule:nonzero;stroke:none"
         id="path42" />
      <path
         d="m 18926.9,18736.1 c 0,0 -395.4,-222 -603.6,-381.6 -208.1,-166.5 -235.9,-235.8 -367.7,-298.3 -124.9,-62.4 -152.6,-69.4 -152.6,-69.4 0,0 -138.8,-13.8 -305.3,0 -166.5,13.9 -249.8,13.9 -492.6,-48.5 -249.8,-62.5 -374.7,-55.5 -374.7,-55.5 0,0 55.5,-48.6 305.3,-48.6 249.8,0 388.5,48.6 520.4,48.6 138.7,0 263.6,6.9 263.6,6.9 0,0 118,-111 263.7,-131.8 145.7,-13.9 208.1,34.7 256.7,41.6 48.5,13.9 48.5,13.9 48.5,13.9 0,0 -27.7,27.7 -76.3,41.6 -48.6,6.9 -124.9,69.4 -124.9,69.4 0,0 263.7,256.7 388.6,360.8 124.8,104 284.4,138.7 360.7,222 69.4,90.2 90.2,228.9 90.2,228.9 z m -978.2,2914 c 0,0 -652.2,-360.8 -999.1,-631.3 -346.9,-277.6 -388.5,-395.5 -603.6,-492.6 -208.2,-104.1 -249.8,-111 -249.8,-111 0,0 -228.9,-20.9 -506.5,0 -277.5,20.8 -409.3,20.8 -818.7,-83.3 -409.3,-104.1 -617.4,-97.1 -617.4,-97.1 0,0 90.1,-76.4 506.4,-76.4 416.3,0 638.3,83.3 860.4,83.3 222,0 430.1,6.9 430.1,6.9 0,0 194.3,-187.3 437.1,-208.1 242.8,-27.8 346.9,48.6 423.2,62.4 76.3,20.9 90.2,20.9 90.2,20.9 0,0 -55.5,48.5 -131.8,69.3 -76.3,13.9 -208.1,118 -208.1,118 0,0 430.1,416.3 638.3,589.7 208.1,173.5 478.7,229 596.6,374.7 124.9,145.7 152.7,374.6 152.7,374.6 z M 20800.2,20318 c 0,0 -527.3,-291.4 -811.7,-513.4 -277.6,-222 -312.3,-319.1 -485.7,-402.4 -173.5,-83.3 -208.1,-90.2 -208.1,-90.2 0,0 -187.4,-13.9 -409.4,0 -228.9,20.8 -333,20.8 -666,-62.4 -340,-90.2 -499.6,-76.4 -499.6,-76.4 0,0 69.4,-69.3 409.4,-69.3 333,0 520.3,69.3 700.7,69.3 180.4,0 346.9,7 346.9,7 0,0 159.6,-152.7 360.8,-173.5 194.2,-20.8 277.5,41.7 339.9,55.5 62.5,20.8 76.4,20.8 76.4,20.8 0,0 -48.6,34.7 -111,48.6 -62.5,13.9 -166.6,104.1 -166.6,104.1 0,0 347,333 520.4,471.8 166.5,145.7 388.5,187.3 485.7,312.2 97.1,117.9 117.9,298.3 117.9,298.3"
         style="fill:#27304d;fill-opacity:1;fill-rule:nonzero;stroke:none"
         id="path44" />
    </g>
  </g>
</svg>
