<svg width="5333.333" height="5333.333" xmlns="http://www.w3.org/2000/svg">
    <defs>
        <linearGradient x1="0" y1="0" x2="1" y2="0" gradientUnits="userSpaceOnUse" gradientTransform="matrix(20605.2 0 0 -20605.2 14506.4 23918.5)" spreadMethod="pad" id="b">
            <stop style="stop-opacity:1;stop-color:#f36721" offset="0"/>
            <stop style="stop-opacity:1;stop-color:#e09417" offset=".552"/>
            <stop style="stop-opacity:1;stop-color:#d9c119" offset=".865"/>
            <stop style="stop-opacity:1;stop-color:#b6661c" offset=".994"/>
            <stop style="stop-opacity:1;stop-color:#b6661c" offset="1"/>
        </linearGradient>
        <clipPath clipPathUnits="userSpaceOnUse" id="a">
            <path d="M26079.7 19167.5c991.9-35.3 1717.1-414.1 2054.4-620-251.2-151.3-931.1-515.5-1860-465.6-1036.4 56.9-1724 593.1-1938.4 776 348.1 141.3 963.5 338 1744 309.6zm678.4 10686c2755.1 0 4988.5-2233.4 4988.5-4988.4 0-784.5-181.4-1527.4-504-2187.3-211.3-13.9-462.5-13.9-740.7 19.2-928.8 109.1-1114.7 457.9-1787 515.5-932.7 79.9-1010.3-553.2-2012.9-563.9-1021.8-10.8-1121.6 643-2078.2 547.8-665.3-66.9-842-405.7-1754.7-515.6-212-25.3-408.7-31.5-583.1-26.8-330.4 666-516.3 1416.6-516.3 2211.1 0 2755 2233.4 4988.4 4988.4 4988.4zm-4270.8-8503.3c277.3-10 475.5 30.7 642.2 92.2 403.4 149.8 628.5 426.4 1370.7 435.6 1104.7 14.6 1203.1-589.3 2211.1-494.8 842.8 78.4 948 517.1 1913.7 527.8 520.9 6.2 616.2-120.6 1253.9-99.1 486.3 16.9 706 99.9 944.9 162.1 126.8 33.1 259.7 60.7 441 69.2 955.8 43.8 1243.9-537.8 2111.3-693 362.6-64.6 860.4-60.7 1503.5 205.1 96 336.5 174.4 680.7 232 1030.3-374.9-31.5-856.6-20-1388.3 127.5-427.1 118.3-767.5 291.2-1016.4 444.8 122.9 438.7 742.2 2808.1-635.4 5145.2-540.1 917.3-1230.7 1563.4-1906.8 2019-154.5 104.5-307.3 199-457.9 283.5-787.5 446.4-1500.5 649.2-1859.3 746.8-1638.7 444.8-3092.3 231.3-4091-59.2l623.8-1342.9c50.7-110.6 2.3-243.6-108.3-295l-86.1-39.2c-110.6-51.5-242.7-3.1-294.2 107.6l-650 1400.5-1096.3 2362.5c-4402.3-1124-7639-4906.3-7639-9398.4 0-1357.5 295.8-2650.5 829.7-3824.5 2643.7 619.3 4212.5 89.2 4929.3-243.5 923.5-428.7 2682.8-1575 3062.4-1821.6 554.7-361.9 1007.9-673.8 1318.3-892-1920.7 712.2-3523.3 1174-4690.3 1472.8-895.1 229.7-1520.4 360.3-2326.4 310.4-543.9-33.8-1036.4-141.4-1468.1-282 1845.4-2682 5056-4457.5 8709.2-4457.5 2523 0 4837 847.4 6634.8 2257.2-735.2-132.9-1657.9-364.2-2675.1-209-1153.2 176-2380.9 485.6-2362.5 636.9 10.8 94.5 494.8 47.7 1317.6 194.4 850.5 150.6 1276.1 368 1628 464.8 554.7 152.1 1395.2 132.9 2663.6-603.9 378 343.5 728.3 714.5 1047.2 1107.9-597.7 106-1243.9 249.7-1926.1 444.8-976.5 278.9-1833.1 607-2561.4 931.2 543.1 185.9 1493.5 432.5 2677.4 325.7 1066.4-95.2 1914.6-439.4 2490.8-749 182.1 289.6 348 588.5 497.8 896.6-686.1 401.8-1905.3 958.8-3500.3 972.6-328 3.1-639.9-17.7-933.4-55.3-860.5-109.1-1565-361.9-2069-594.7-234.3-108.3-425.6-211.2-568.5-294.2-454.1 108.3-1217.7 232-2129.7 83-112.1-18.5-225.9-40.8-341.9-67.7-580-135.2-1047.9-348.8-1390.6-540.8-280.4 241.2-649.1 527-1108.6 805.1-369.5 223.6-798.2 443.3-1285.3 631.6-772.1 298-1472.8 432.5-2019 494.7 252 195.2 645.3 438.7 1155.4 494.8 973.5 106.8 1317.6-589.3 2375.6-626.9z"/>
        </clipPath>
    </defs>
    <path d="M40000 0H0v40000h40000V0" style="fill:#a6a9a7;fill-opacity:1;fill-rule:nonzero;stroke:none" transform="matrix(.13333 0 0 -.13333 0 5333.333)"/>
    <g clip-path="url(#a)" transform="matrix(.13333 0 0 -.13333 0 5333.333)">
        <path d="M26079.7 19167.5c991.9-35.3 1717.1-414.1 2054.4-620-251.2-151.3-931.1-515.5-1860-465.6-1036.4 56.9-1724 593.1-1938.4 776 348.1 141.3 963.5 338 1744 309.6zm678.4 10686c2755.1 0 4988.5-2233.4 4988.5-4988.4 0-784.5-181.4-1527.4-504-2187.3-211.3-13.9-462.5-13.9-740.7 19.2-928.8 109.1-1114.7 457.9-1787 515.5-932.7 79.9-1010.3-553.2-2012.9-563.9-1021.8-10.8-1121.6 643-2078.2 547.8-665.3-66.9-842-405.7-1754.7-515.6-212-25.3-408.7-31.5-583.1-26.8-330.4 666-516.3 1416.6-516.3 2211.1 0 2755 2233.4 4988.4 4988.4 4988.4zm-4270.8-8503.3c277.3-10 475.5 30.7 642.2 92.2 403.4 149.8 628.5 426.4 1370.7 435.6 1104.7 14.6 1203.1-589.3 2211.1-494.8 842.8 78.4 948 517.1 1913.7 527.8 520.9 6.2 616.2-120.6 1253.9-99.1 486.3 16.9 706 99.9 944.9 162.1 126.8 33.1 259.7 60.7 441 69.2 955.8 43.8 1243.9-537.8 2111.3-693 362.6-64.6 860.4-60.7 1503.5 205.1 96 336.5 174.4 680.7 232 1030.3-374.9-31.5-856.6-20-1388.3 127.5-427.1 118.3-767.5 291.2-1016.4 444.8 122.9 438.7 742.2 2808.1-635.4 5145.2-540.1 917.3-1230.7 1563.4-1906.8 2019-154.5 104.5-307.3 199-457.9 283.5-787.5 446.4-1500.5 649.2-1859.3 746.8-1638.7 444.8-3092.3 231.3-4091-59.2l623.8-1342.9c50.7-110.6 2.3-243.6-108.3-295l-86.1-39.2c-110.6-51.5-242.7-3.1-294.2 107.6l-650 1400.5-1096.3 2362.5c-4402.3-1124-7639-4906.3-7639-9398.4 0-1357.5 295.8-2650.5 829.7-3824.5 2643.7 619.3 4212.5 89.2 4929.3-243.5 923.5-428.7 2682.8-1575 3062.4-1821.6 554.7-361.9 1007.9-673.8 1318.3-892-1920.7 712.2-3523.3 1174-4690.3 1472.8-895.1 229.7-1520.4 360.3-2326.4 310.4-543.9-33.8-1036.4-141.4-1468.1-282 1845.4-2682 5056-4457.5 8709.2-4457.5 2523 0 4837 847.4 6634.8 2257.2-735.2-132.9-1657.9-364.2-2675.1-209-1153.2 176-2380.9 485.6-2362.5 636.9 10.8 94.5 494.8 47.7 1317.6 194.4 850.5 150.6 1276.1 368 1628 464.8 554.7 152.1 1395.2 132.9 2663.6-603.9 378 343.5 728.3 714.5 1047.2 1107.9-597.7 106-1243.9 249.7-1926.1 444.8-976.5 278.9-1833.1 607-2561.4 931.2 543.1 185.9 1493.5 432.5 2677.4 325.7 1066.4-95.2 1914.6-439.4 2490.8-749 182.1 289.6 348 588.5 497.8 896.6-686.1 401.8-1905.3 958.8-3500.3 972.6-328 3.1-639.9-17.7-933.4-55.3-860.5-109.1-1565-361.9-2069-594.7-234.3-108.3-425.6-211.2-568.5-294.2-454.1 108.3-1217.7 232-2129.7 83-112.1-18.5-225.9-40.8-341.9-67.7-580-135.2-1047.9-348.8-1390.6-540.8-280.4 241.2-649.1 527-1108.6 805.1-369.5 223.6-798.2 443.3-1285.3 631.6-772.1 298-1472.8 432.5-2019 494.7 252 195.2 645.3 438.7 1155.4 494.8 973.5 106.8 1317.6-589.3 2375.6-626.9" style="fill:url(#b);fill-opacity:1;fill-rule:nonzero;stroke:none"/>
    </g>
    <path d="M31746.6 24865.3c0-784.8-181.4-1527.3-504.3-2187.7-211.2-13.4-462.2-13.4-740.2 19.4-929 108.7-1115 457.5-1787.5 515.2-932.5 80.2-1010.3-552.8-2012.9-563.7-1021.2-11-1121.2 642.8-2077.5 547.6-665.5-66.4-842.1-405.7-1755.3-515.2-212-25.5-408.3-31.7-583-27.3-330.2 666.6-515.9 1417.4-515.9 2211.7 0 2755.1 2233.2 4988.3 4988.3 4988.3 2755 0 4988.3-2233.2 4988.3-4988.3M24272.1 29655.5l-86.1-39.7c-110.5-51.5-243-3-294.4 107.6l-650.2 1400.7-1096.4 2362.4-191.5 412.7c-51.1 110.5-2.9 243 107.6 294.4l86.5 39.8c110.5 51.4 243 2.9 294.1-107.7l240-517 1074.9-2315.7 623.5-1343c51.1-110.6 2.6-243-108-294.5M27232.9 30237.9l-305.4 34.5c-63.1 7.1-108.9 64.6-101.7 127.7l455.5 4027.9c7.2 63.1 64.7 108.9 127.8 101.8l305.3-34.6c63.1-7.1 108.9-64.6 101.8-127.7l-455.6-4027.9c-7.1-63.1-64.6-108.9-127.7-101.7M25728.1 30159.4l-303-51.2c-62.7-10.6-122.6 31.9-133.2 94.6l-756.1 4466.5c-10.6 62.6 32 122.5 94.6 133.1l303 51.3c62.7 10.6 122.6-32 133.2-94.6l756.1-4466.5c10.6-62.6-32-122.6-94.6-133.2M28421.4 29995.9l-289.9 102c-59.9 21-91.7 87.3-70.7 147.2l664.7 1891.1c21.1 59.9 87.4 91.7 147.3 70.6l289.9-101.9c59.9-21 91.7-87.3 70.7-147.2l-664.7-1891.1c-21.1-59.9-87.3-91.7-147.3-70.7M31107.3 28055.2l-175.6 252.1c-36.3 52.2-23.4 124.5 28.8 160.8l1425.6 992.8c52.2 36.3 124.5 23.4 160.8-28.8l175.6-252.1c36.3-52.2 23.4-124.5-28.7-160.8l-1425.7-992.8c-52.1-36.3-124.5-23.4-160.8 28.8M33113.1 29887.3l-175.6 252.2c-36.3 52.1-23.4 124.5 28.8 160.8l711.7 495.6c52.1 36.3 124.5 23.4 160.8-28.7l175.6-252.2c36.3-52.2 23.3-124.5-28.8-160.8l-711.7-495.6c-52.2-36.3-124.5-23.4-160.8 28.7M31707.1 31389.6l-249 180.1c-51.4 37.2-63.1 109.8-25.8 161.3l508.3 702.7c37.2 51.4 109.8 63.1 161.3 25.9l249-180.2c51.4-37.2 63.1-109.8 25.8-161.2l-508.3-702.8c-37.2-51.4-109.8-63.1-161.3-25.8M29785.3 32588.7l-282.6 120.8c-58.4 25-85.7 93.2-60.8 151.6l340.9 797.5c25 58.4 93.2 85.8 151.6 60.8l282.6-120.8c58.4-25 85.7-93.2 60.8-151.6l-340.9-797.5c-25-58.4-93.2-85.7-151.6-60.8M29513.1 29502.1l-260.2 163.4c-53.8 33.8-70.2 105.5-36.4 159.3l1122.7 1788.3c33.8 53.8 105.4 70.2 159.2 36.4l260.3-163.4c53.8-33.8 70.2-105.4 36.4-159.2l-1122.7-1788.4c-33.8-53.7-105.5-70.1-159.3-36.4" style="fill:#efefed;fill-opacity:1;fill-rule:nonzero;stroke:none" transform="matrix(.13333 0 0 -.13333 0 5333.333)"/>
    <path d="m30383.2 28859-222.4 212.1c-46 43.8-47.8 117.3-3.9 163.3l1392.3 1460.3c43.9 46 117.3 47.7 163.3 3.9l222.4-212c46-43.9 47.7-117.4 3.9-163.3l-1392.3-1460.4c-43.9-46-117.4-47.7-163.3-3.9M31656.4 27123l-121.7 282.1c-25.2 58.3 2 126.6 60.3 151.8l3026.6 1305.9c58.4 25.2 126.7-1.9 151.8-60.3l121.8-282.1c25.1-58.3-2-126.6-60.3-151.8l-3026.7-1305.9c-58.3-25.2-126.6 1.9-151.8 60.3M32008.5 26099.9l-63 300.8c-13 62.2 27.2 123.7 89.4 136.7l1645.4 344.5c62.1 13 123.6-27.2 136.7-89.4l62.9-300.7c13.1-62.2-27.2-123.7-89.3-136.8l-1645.4-344.5c-62.2-13-123.7 27.2-136.7 89.4M33890.2 25714.1l-36.5 305.1c-7.5 63.1 37.9 120.9 100.9 128.4l1333.7 159.6c63.1 7.5 120.9-37.9 128.4-101l36.5-305.1c7.6-63.1-37.9-120.9-100.9-128.4l-1333.7-159.6c-63.1-7.5-120.9 37.9-128.4 101M32149.2 25027.2l-1.7 307.3c-.3 63.5 51.4 115.7 114.9 116.1l1389.4 7.6c63.5.3 115.8-51.4 116.1-114.9l1.7-307.3c.4-63.5-51.3-115.8-114.9-116.1l-1389.4-7.6c-63.5-.3-115.7 51.3-116.1 114.9M32073 23947.9l59.7 301.5c12.3 62.3 73.4 103.2 135.7 90.8l1704.2-337.4c62.3-12.4 103.2-73.4 90.9-135.7l-59.7-301.5c-12.4-62.3-73.4-103.2-135.7-90.9l-1704.2 337.5c-62.3 12.3-103.2 73.4-90.9 135.7M34126.7 24295.8l11.8 307.1c2.5 63.5 56.4 113.4 119.9 111l1102.2-42.4c63.5-2.5 113.4-56.4 111-119.9l-11.8-307c-2.5-63.5-56.4-113.4-119.9-111l-1102.2 42.4c-63.5 2.4-113.4 56.3-111 119.8" style="fill:#efefed;fill-opacity:1;fill-rule:nonzero;stroke:none" transform="matrix(.13333 0 0 -.13333 0 5333.333)"/>
    <path d="M20453.4 15356.5c-278.5 405.5-539.8 822.6-725.7 1276.9-298.5 729.1-521.7 1488.6-678.8 2260.2-310.5 1525-438.4 2976.8-196.2 4526.5 86.8 554.6 252.5 1108.8 547.7 1582.1 43.4-23.9 88.2-46.3 128.6-74.4 104.2-72.5 176.3-181.4 245.9-287.6 210.2-321 396.9-644.3 496.9-1014.8 115.7 149.8 221.1 307.5 315.3 471.7 54.2 94.4 117.2 194.7 216.5 238.8-19.1-126.7-15.4-255.7-3.6-383.1 39-425.9 190-852.4 397.3-1226.4 73.8 195.7 106.9 404 139.4 610.5 21.5 136.6 57.3 275.5 78.9 412.1 99-168.2 140.5-363.2 180.4-554.2 114.6-547.9 256.4-1090.5 371-1638.2-23.7 233.2 37.6 467.2 122.8 685.6 37.8 97.3 81.5 185.4 79.4 289.8 246-237.6 389.3-565.5 460.2-900 71-334.5 75.1-679.1 79-1021 2.7-231.8 22-467.3 24.6-699.1-54.7 167.9-160.6 301.6-296.4 411.5-147.4 119.3-281.5 253.8-427.1 375.1-421.2 350.6-937.1 736.3-1517.8 651.7-265.3-38.5-503.5-159-694.4-347.2 168.8 61 357.9 45 528.3-11.1 170.5-56.2 325.6-150 477.7-245.3-146.9-58.1-380-208.1-441.2-362.6 125.5-21.1 277 8 406 7.9 133.1-.2 266.1-4.4 399.1-12.6 105.5-6.4 218-18 300.5-84.3-169.9-61.4-345.2-195.5-416.4-366.6 186.6 44 372.7 30.1 557.9-13.7 148.7-35.4 315.1-74.6 424.8-188.7-171.1-90-329.1-204.9-467.3-340 144.6 42.5 291.8 85.3 442.4 83.4 150.7-1.9 319-69.3 411.6-188.1-493.6-34.4-914.4-208.7-1309.1-503.9-297.4-222.4-556.8-419.4-716.9-764.9-99.6-215.4-176-451.5-222.3-684.2-25.8-128.9-43.8-259.2-53.2-390.4-7.4-107.2 22.3-251.3-3.7-352.9 82.8 322.8 288 624.3 503 874 17.4-110.8 19.8-252.3 59.7-352.5 185.2 215.8 315.1 491.4 388.4 764.6 28.2 105.4 49.8 216.4 113.4 304.9 21.7-203.9 7.9-466.1 76.3-657.6 166.7 116.8 238.1 362.3 286.8 549 46.2 176.4 76.5 357.3 133 530.9 76.1-135.7 131-283.2 161.9-435.8 24.7 121.4 63.8 233.1 124.2 341.8 33.3 59.9 228.5 269 221.8 325.2 42.2-354.4-15.6-715.5-126-1054.9-110.5-339.5-272.4-659.6-443.1-973.1-298.3-548.4-645.2-1101.4-1161.5-1445zm3086-632.3c-602.4 107.5-1209 219.8-1818.5 318.3 100.6 235 201.1 470 301.7 705.1 130.9 306 234.5 622.9 335.1 940 48.9 153.9 105.5 306.6 133.6 466.1 29.7 168.5 37.2 339.7 58 509.3 25.6 209.7 57.4 418.6 95.1 626.6 34.5 189.1 9.4 389 77.3 572.1 51.4-148.8 78-306.3 78.2-463.7 75.8 112 143.7 229.2 203 350.8 73.6-230.9 147.5-461.8 221.3-692.9 51.4 110.5 92.4 225.7 122.3 343.7 43.8-307.6 104.1-613 180.5-914.2 41.4 181.7 111.3 357 206.4 517.3 95.9-377.5 163.8-762.1 202.9-1149.5 59.5 112.7 128.3 243.3 150.2 368.9 124-471.6 261.2-939.9 211.5-1425 174.9 142.4 257.2 336.5 308.7 550.4 78.7 327 129.9 665 97.3 999.8-41.1 422.2-232.8 738.1-499.4 1054.8-125.4 149.1-273.5 279-437.2 384.9-44.5 28.8-487.2 281.6-516 235.9 60.3 95.3 183.8 128.5 296.5 133.8 222.6 10.3 448.3-59.7 625.9-194.6-28.1 127.1-62.6 252.7-103.5 376.1 175.5-75.7 344.4-166.8 504.1-271.8 159-104.7 294-236.8 446.1-347.9 52 62.2.8 196.3-21.8 266.2-30 93-43.4 199.6-73.5 292.7 367.9-83 721.2-229.6 1039.8-431.5-70.7 496.1-466.7 909.8-937.5 1081.3-470.9 171.7-1000.7 125.2-1472.6-43.5-225.4-80.7-433.2-173.1-588.6-355.3 162.6 282.2 314.7 570.3 456.1 863.7 149.2 309.9 177.2 619.3 168.6 959.9-7.7 303-58.4 604.1-157.9 890.8-203.1 585.5-421.9 1191.7-815.8 1670.3-326.5 396.8-706.5 749.4-1126.6 1045.4-173.1 122.1-349.6 186.1-555.5 231.4-193.3 42.5-395.6 76.3-564.2 187.3 559.9 48.6 1131.1-38.3 1651.2-251.1-120.7 301.7-209.1 600.7-329.8 902.4 614.6-627 1264.9-1211.5 1945.7-1749.1-16 435.4-32 870.6-48.2 1306 282.7-390.4 474.9-848.8 725.6-1264.5 250.7-415.5 584.6-805.3 1019.7-942.1-143.1 532.8-224.2 1085-240.6 1638.9 601.4-919.1 799.7-2077.7 1278.5-3079.2 78.8-164.7 184.5-341 349.9-377.9 54.3 668.8 75.4 1341.4 63.3 2013.5 347-858.6 719.9-1704.9 1118-2536.9 276.8 807.4 112.3 1716-105 2550.9-68 260.9-141.2 522-254.1 764-295 632.9-831.8 1099.5-1382.1 1448.6-1156.8 734.6-2402.2 1156.6-3736.8 1133.2-817.8-14.5-1638.7-153.8-2402.6-461.3 34.4 59.7 76.3 115.6 122.8 166 126.2 137.1 284.5 240.2 441 341.6 421 273 875.8 556.2 1377.5 545.4-212.6 197.2-514.9 293.7-802.5 256.1 283.5 102 570.8 204.8 870.9 231.7 299.9 27.1 619.1-29.6 854.3-218-162.2 216.7-383.5 388.3-633.6 491.7 200.1 110.5 483.3 58 705.5 4.4 645.5-155.7 1291-311.5 1936.4-467.1-26.3 180.2-174.3 317-325 419.3-150.5 102.5-318 191.5-423.4 340.2 427.4 8.4 850.8-87.7 1243.2-257.2 392.6-169.5 765.9-380.7 1158-550.9-82.1 208.9-244.6 385.1-446.3 484 250.4 12.8 496.3-77.7 725.3-179.4 56.7-25.2 113.5-50.6 166.2-83.2 108.7-67.2 198-165.8 254-280.9 32.2 103.1-17.3 212.6-70.4 306.7-441.1 780.6-1194.6 1369-2014.5 1710.7-939.3 391.6-1936.6 329.8-2886.7.3-699.6-242.8-1541.5-600.6-2099.9-1099.3-287.5-256.7-447.5-623.6-592.2-980.8-93.6-231.4-184.5-463.8-272.6-697.3-87.9 233.5-178.8 465.9-272.6 697.3-144.7 357.2-304.6 724.1-592.2 980.8-558.4 498.7-1400.3 856.5-2099.9 1099.3-950.1 329.5-1947.2 391.3-2886.5-.3-820.1-341.7-1573.5-930.1-2014.7-1710.7-53.1-94.1-102.6-203.6-70.4-306.7 56.2 115.1 145.3 213.7 254.1 280.9 52.7 32.6 109.5 58 166.1 83.2 229 101.7 475.1 192.2 725.3 179.4-201.7-98.9-364.2-275.1-446.2-484 392.1 170.2 765.5 381.4 1157.9 550.9 392.4 169.5 815.8 265.6 1243.2 257.2-105.3-148.7-272.7-237.7-423.4-340.2-150.7-102.3-298.7-239.1-325-419.3 645.4 155.6 1290.9 311.4 1936.4 467.1 222.2 53.6 505.4 106.1 705.5-4.4-250-103.4-471.4-275-633.6-491.7 235.2 188.4 554.4 245.1 854.5 218 299.9-26.9 587.2-129.7 870.7-231.7-287.6 37.6-589.9-58.9-802.5-256.1 501.7 10.8 956.5-272.4 1377.6-545.4 156.4-101.4 314.7-204.5 440.9-341.6 67.2-72.8 125-157.1 163.8-248-690 178.4-1411.5 240.2-2125.1 214.8-1315.6-47.1-2518.1-488.4-3616-1204.8-522.2-340.6-1024.7-785.4-1279.6-1367-97.4-222.3-154.9-459.6-207.2-696.5-167-758.4-278-1579.7 39.9-2288.1 345.2 764.7 664.8 1541.1 958.4 2327.2 25.7-602.1 84.4-1202.8 175.4-1798.5 160.9 41.3 255.1 204.6 323.4 356 415.2 920.5 545.3 1967.4 1085.8 2820.7 15-496.4-33.8-994.8-144.9-1478.8 420.9 144.6 727.8 510.4 951.3 895.2 223.5 384.7 387 804.6 643.3 1168.5 8.7-390.4 17.3-780.7 26.1-1171.1 640.2 515.7 1247.7 1072.1 1817.7 1664.6 21.6-97.2 43.3-194.4 64.8-291.5 21-94.2 88.5-98.3 165.9-70.9 140.9 49.9 294.8 61.1 441.9 34.3-412.1-310-824-620-1236.1-929.8-439.6-330.9-1074.3-660.9-1276.5-1205.5-249.7-671.9-402.9-1414.7-385.4-2132.3 7.4-302.9 54.3-612.7 100.6-911.5 11.3-73.4 28.7-394.2 107.1-433.5 87.1-43.5 201.1 156.1 227.5 221.4 186.6 463.6 307.5 947.7 383.4 1441.2 24.6 159.7 44.1 320.3 58.6 481.2 5.6 62.3 89.4 298.2 79.8 346.1 127.4-395.3 254.8-790.5 382.2-1185.8 264.5 178.9 351.5 525.8 382.8 843.5 44.6 453.6 17.1 914.1-81.3 1358.9 137.1-291.2 320.6-560.7 541.5-795 453.8 645.5 460.1 1490.8 643.4 2258.3 8.5-91.9 56.9-339.9 160.8-374.5 60-20.1 143.8 42.9 190 72.2 51.4 32.6 102.2 69 151.4 108-319.7-807.5-589.4-1634.6-660.2-2496.4-25.3-308.4-24.9-618.4-24.3-927.8.9-564.8 1.9-1129.5 2.8-1694.3.7-389.2 1.3-778.9 32.9-1166.8 84.6-1041.9 388.8-2049.3 723.8-3042.3-235.9-2-471.8-10.9-707.5-27.4-1786-124.9-3550.5-599.3-5333.8-798.6-1332.1-148.8-2714.95-460.6-4059.35-374.8-1059.44 67.4-2138.97 280.1-3188.07 533.9v-1111.5c1049.1-253.7 2128.63-466.3 3188.07-533.8 1344.4-85.8 2727.25 225.9 4059.35 374.7 1783.3 199.4 3547.8 673.8 5333.8 798.7 1938.5 135.6 3880.9-249.3 5780.3-588.4 3652-652 7464-963.2 11019 62.6v1111.4c-3555-1025.8-7367-714.6-11019-62.6M34558.4 5960.2V4742H5177.88v1218.2c9793.52-388.1 19587.02-388.1 29380.52 0M5818.34 10506.9h488.04c119.18 0 223.07 14.9 311.67 44.7 88.57 29.8 161.88 72.5 219.87 128 57.98 55.6 101.47 123.3 130.46 203 28.99 79.7 43.49 168.7 43.49 267 0 93.4-14.5 177.9-43.49 253.7-28.99 75.6-72.48 140.1-130.46 193.2-57.99 53.2-131.3 93.8-219.87 122-88.6 28.2-192.49 42.3-311.67 42.3h-488.04zm0-507.4V8769.7h-649.92v3493.7h1137.96c233.53 0 435.69-27.4 606.43-82.2 170.71-54.8 311.67-131.3 422.81-229.5 111.14-98.3 193.29-215.9 246.44-352.8 53.15-136.9 79.73-286.7 79.73-449.3 0-169.2-28.2-324.2-84.56-465.1-56.4-141-140.97-262.2-253.69-363.7-112.76-101.4-253.68-180.4-422.81-236.7-169.12-56.4-367.24-84.6-594.35-84.6h-488.04M8601.64 10088.9h1113.8L9290.21 11251c-19.32 51.6-40.69 112.4-64.02 182.4-23.37 70.1-46.32 146.2-68.86 228.4-22.57-82.2-44.69-158.7-66.44-229.6-21.74-70.9-43.11-132.8-64.02-186zm2261.46-1319.2h-502.6c-56.4 0-102.7 14.1-138.9 42.3-36.2 28.2-62.4 63.2-78.5 105.1l-260.95 712.8H8434.93L8174 8917.1c-12.91-37-38.28-70.9-76.11-101.4-37.86-30.7-84.18-46-138.92-46h-504.96l1372.32 3493.7h664.42l1372.35-3493.7M11872.9 9306.1h1398.9v-536.4H11223v3493.7h649.9V9306.1M15551.4 10058.7c23.3-55.6 46.3-111.5 68.8-167.9 22.6 58 45.9 115.1 70.1 171.5 24.2 56.4 49.9 110.3 77.3 161.9l1034.1 1935.3c12.9 24.1 26.1 43.5 39.8 58 13.7 14.5 29 24.9 46 31.4 16.9 6.4 35.8 10.4 56.7 12 20.9 1.6 45.9 2.5 74.9 2.5h490.5V8769.7H16937v2256.6c0 41.9 1.2 87.8 3.6 137.8 2.4 49.9 6 100.6 10.9 152.2l-1055.8-1981.2c-24.2-45.1-55.6-80.1-94.3-105.1-38.6-25-83.7-37.4-135.3-37.4h-89.4c-51.5 0-96.6 12.4-135.3 37.4-38.6 25-70 60-94.2 105.1l-1070.3 1988.4c6.4-53.1 10.9-105.1 13.3-155.8 2.4-50.8 3.6-97.9 3.6-141.4V8769.7h-572.6v3493.7h490.5c29 0 53.9-.9 74.9-2.5 20.9-1.6 39.8-5.6 56.7-12 17-6.5 32.7-16.9 47.2-31.4s28.1-33.9 41-58l1043.8-1940.1c27.3-51.6 52.7-105.1 76.1-160.7M19797.5 10301.5V9277.1h659.6c120.8 0 221.9 14.5 303.2 43.5 81.3 29 146.6 67.7 195.7 116 49.1 48.3 84.6 104.7 106.3 169.1 21.8 64.4 32.7 132.9 32.7 205.4 0 75.7-12.1 143.7-36.3 204.1-24.1 60.4-62 112-113.5 154.7-51.6 42.6-117.6 75.2-198.2 97.8-80.5 22.5-178 33.8-292.3 33.8zm0 449.4h519.5c220.6 0 388.1 40.3 502.5 120.8 114.4 80.5 171.6 208.6 171.6 384.2 0 182-51.6 311.6-154.7 389-103.1 77.3-264.2 115.9-483.2 115.9h-555.7zm-649.9-1981.2v3493.7h1205.6c228.7 0 424-21.8 585.9-65.3 161.9-43.5 294.8-105.5 398.7-186 103.9-80.6 180-178 228.3-292.3 48.3-114.4 72.5-243.3 72.5-386.6 0-82.2-12.1-160.7-36.3-235.6-24.1-74.9-61.6-144.9-112.3-210.2-50.8-65.2-115.2-124.4-193.3-177.6-78.2-53.1-171.2-98.2-279.1-135.3 480-107.9 720-367.2 720-777.9 0-148.2-28.2-285.1-84.5-410.8-56.4-125.6-138.6-233.9-246.5-324.9-107.9-91-240.8-162.3-398.6-213.8-157.9-51.6-338.3-77.4-541.2-77.4h-1319.2M22203.6 8725.5l-.9 517.1 1548.7 2.8-1.8 968.8-1220.1-2.2-.9 500.1 1220.1 2.2-1.8 988.2-1548.6-2.8-1 519.5 2203.5 3.9 6.3-3493.6-2203.5-4M25923.6 10088.9h1113.8l-425.2 1162.1c-19.3 51.6-40.7 112.4-64 182.4-23.4 70.1-46.3 146.2-68.9 228.4-22.5-82.2-44.7-158.7-66.4-229.6-21.8-70.9-43.1-132.8-64-186zm2261.5-1319.2h-502.6c-56.4 0-102.7 14.1-138.9 42.3-36.2 28.2-62.4 63.2-78.5 105.1l-260.9 712.8h-1447.3l-260.9-712.8c-12.9-37-38.3-70.9-76.1-101.4-37.9-30.7-84.2-46-138.9-46h-505l1372.3 3493.7h664.4l1372.4-3493.7M28707.7 11336.7c-35.4.3-65.9 14.2-91.5 41.8l-253.7 280c143.2 174.4 318.6 307.4 526.3 399.1 207.8 91.7 456.6 136.3 746.5 134 259.4-2.2 492.2-48.4 698.4-138.7 206.2-90.3 382-215 527.2-374.1 145.3-159 256.1-348.4 332.4-568.1 76.3-219.6 113.3-459.2 111.2-718.5-2.2-262.5-47.7-502.5-136.4-720.1-88.8-217.5-212.8-404.5-371.9-561.1-159.2-156.5-349.1-277.7-569.6-363.7-220.6-86-463.8-127.9-729.5-125.7-259.3 2.2-485.7 45.5-679.1 130.1-193.4 84.6-358.8 195.9-496.2 333.9l220 300.2c13 19.2 29.7 36 49.9 50.3 20.3 14.4 48.1 21.4 83.5 21.1 37.1-.3 74.8-15.1 113.2-44.4 38.4-29.4 87.3-61.2 146.6-95.5 59.4-34.3 134.4-66.3 225.1-96.1 90.8-29.7 206.2-45.2 346.4-46.3 164.3-1.4 315.5 26 453.7 82s257.2 136.8 357.2 242.3c99.9 105.4 178.3 234.1 235.1 385.8 56.8 151.7 86 322.7 87.6 512.7 1.6 196.5-24.7 371.5-79 525s-128.5 282.9-222.7 388.4c-94.2 105.5-205.4 186.5-333.8 243.2-128.4 56.6-266.7 85.5-414.9 86.7-88.6.8-168.7-3.4-240.5-12.5-71.7-9-137.9-23.8-198.5-44.2-60.6-20.4-117.9-47-172.2-79.5-54.2-32.6-108.1-72.8-161.7-120.7-16.2-14.4-33.2-25.9-51-34.6-17.8-8.7-37.1-13-58.1-12.8M34772.4 8769.7h-654.8v1527h-1638.1v-1527h-654.7v3493.7h654.7v-1502.8h1638.1v1502.8h654.8V8769.7M12306.2 7595.7c-4.8-8.9-11.6-13.4-20.5-13.4-6.8 0-15.6 4.9-26.4 14.6-10.7 9.6-25.3 20.4-43.7 32.2-18.4 11.7-41.3 22.6-68.9 32.5-27.6 10-61.6 15-102 15-40.5 0-76.1-5.8-106.8-17.3-30.7-11.5-56.4-27.2-77.2-47.1-20.7-19.9-36.5-43-47.3-69.1-10.7-26.2-16.1-53.7-16.1-82.5 0-37.7 8-68.8 24-93.4 16-24.7 37.1-45.6 63.3-62.9 26.2-17.2 55.9-31.8 89.2-43.5 33.3-11.8 67.5-23.5 102.7-35 35.1-11.5 69.3-24.2 102.6-38.1 33.3-13.9 63-31.3 89.2-52.2 26.2-20.9 47.3-46.7 63.3-77.3 16-30.7 24-68.8 24-114.3 0-46.6-8-90.5-23.9-131.5-16-41.2-39.2-76.9-69.5-107.2-30.4-30.4-67.6-54.4-111.5-71.9-44-17.5-94.3-26.3-150.8-26.3-73.3 0-136.4 13-189.3 38.9-52.8 25.9-99.2 61.4-139 106.4l22 34.5c6.3 7.9 13.6 11.8 22 11.8 4.7 0 10.8-3.1 18.1-9.4 7.3-6.3 16.3-14 26.7-23.2 10.5-9.1 23.1-19.1 37.8-29.8 14.7-10.8 31.7-20.7 51.1-29.9 19.4-9.1 41.7-16.8 66.8-23.1 25.2-6.3 53.8-9.4 85.8-9.4 44 0 83.3 6.6 117.9 20 34.6 13.3 63.9 31.5 87.7 54.6 23.9 23 42.1 50.3 54.7 82 12.5 31.7 18.8 65.6 18.8 101.7 0 39.3-8 71.6-24 97-16 25.4-37.1 46.6-63.3 63.6-26.2 17-55.9 31.3-89.2 42.8-33.3 11.5-67.5 22.8-102.6 33.8-35.2 11-69.4 23.3-102.7 36.9-33.3 13.6-63 31-89.2 52.2-26.2 21.2-47.3 47.6-63.3 79.3-16 31.7-24 71.3-24 119 0 37.1 7.1 73 21.2 107.6 14.2 34.5 34.9 65 62.1 91.5 27.3 26.4 61 47.6 101.1 63.6 40.1 15.9 85.8 23.9 137.2 23.9 57.7 0 109.5-9.1 155.3-27.5 45.9-18.3 87.7-46.3 125.4-84l-18.8-36.1M13297.2 6687.9h526.9v-68.3h-607v1111.2h80.1V6687.9M15493.6 7175.5c0 77.5-10.7 147.2-32.2 208.9-21.5 61.8-51.7 114.2-90.7 157.1-39 42.9-86 75.8-140.9 98.5-55 22.8-116 34.2-183 34.2-66 0-126.3-11.4-181-34.2-54.7-22.7-101.9-55.6-141.4-98.5s-70.1-95.3-91.9-157.1c-21.7-61.7-32.5-131.4-32.5-208.9 0-78 10.8-147.7 32.5-209.2 21.8-61.5 52.4-113.8 91.9-156.7 39.5-42.9 86.7-75.6 141.4-98.2 54.7-22.5 115-33.7 181-33.7 67 0 128 11.2 183 33.7 54.9 22.6 101.9 55.3 140.9 98.2 39 42.9 69.2 95.2 90.7 156.7 21.5 61.5 32.2 131.2 32.2 209.2zm83.2 0c0-85.8-12.8-163.7-38.4-233.6-25.7-69.9-61.8-129.5-108.4-179-46.6-49.5-102.4-87.7-167.3-114.7-64.9-26.9-136.9-40.4-215.9-40.4-78 0-149.5 13.5-214.4 40.4-64.9 27-120.7 65.2-167.3 114.7-46.6 49.5-82.8 109.1-108.7 179-25.9 69.9-38.9 147.8-38.9 233.6 0 85.4 13 163 38.9 232.9s62.1 129.6 108.7 179c46.6 49.5 102.4 87.9 167.3 115.1 64.9 27.2 136.4 40.8 214.4 40.8 79 0 151-13.5 215.9-40.4 64.9-27 120.7-65.3 167.3-115.1 46.6-49.7 82.7-109.5 108.4-179.4 25.6-69.9 38.4-147.5 38.4-232.9M16944 6672.2c38.2 0 73 2 104.4 5.9 31.5 3.9 60.6 9.8 87.6 17.6 27 7.9 52.6 17.4 77 28.7 24.3 11.3 48.8 24 73.4 38.1v299.2h-213.6c-5.8 0-10.6 1.8-14.5 5.5-4 3.6-5.9 7.8-5.9 12.5v44h307v-395c-27.7-19.4-56.5-36.6-86.4-51.8-29.8-15.2-61.7-27.9-95.8-38.1-34-10.2-70.6-18-109.9-23.5-39.3-5.5-82.2-8.3-128.8-8.3-80.1 0-153.3 13.5-219.5 40.5-66.2 26.9-123 65.1-170.4 114.6-47.4 49.5-84.1 109.3-110.3 179.4-26.2 70.2-39.3 148.2-39.3 234 0 85.9 13.1 163.8 39.3 233.7 26.2 69.9 63.3 129.5 111.5 179 48.1 49.5 106.7 87.7 175.5 114.7 68.8 26.9 145.9 40.4 231.3 40.4 42.4 0 81.5-2.9 117.4-8.6 35.8-5.8 69.2-14.3 100.1-25.5 30.9-11.3 59.7-25.2 86.4-41.7 26.7-16.5 52.3-35.4 76.9-56.9l-21.2-34.6c-4.7-7.8-11.2-11.7-19.6-11.7-4.7 0-9.2 1-13.4 3.1-7.8 3.1-19.2 10.5-34.1 22-14.9 11.5-35.1 23.6-60.5 36.1-25.4 12.6-57.2 23.8-95.4 33.8-38.2 9.9-84.5 14.9-139 14.9-72.2 0-137.4-11.5-195.5-34.5-58.1-23.1-107.7-56.1-148.8-99-41.1-42.9-72.8-95.3-95.1-157-22.2-61.8-33.3-131.2-33.3-208.2 0-78.5 11.2-148.9 33.7-211.2 22.5-62.3 54.1-115 94.7-158.2 40.5-43.2 89.2-76.3 146-99.4 56.8-23 119.5-34.5 188.1-34.5M18363 7023.2h497.9l-227 561.5c-3.7 8.9-7.3 19-11 30.2-3.6 11.3-7.3 23.2-11 35.7-3.6-12.5-7.3-24.4-11-35.7-3.6-11.2-7.3-21.6-11-31zm743.7-403.6h-62.1c-7.3 0-13.3 1.9-18 5.9-4.8 3.9-8.4 9-11 15.3l-131.2 322.7h-545.8l-130.3-322.7c-2.1-5.8-5.8-10.8-11-15-5.2-4.1-11.5-6.2-18.8-6.2h-61.3l454.7 1111.2h80.1l454.7-1111.2M19967.3 7728c4.2-1.8 8.6-5.9 13.4-12.2l719.3-962.7c-1.6 15.7-2.4 30.9-2.4 45.5v932.2h70.7V6619.6h-38.5c-12 0-21.7 5.2-29 15.7l-722.5 964.3c1.6-15.7 2.4-30.6 2.4-44.8v-935.2h-69.9v1111.2h39.2c7.4 0 13.1-1 17.3-2.8M23515.2 6619.6h-80.9V7152h-695.7v-532.4h-80.9v1111.2h80.9v-518.3h695.7v518.3h80.9V6619.6M25139.2 7730.8V7664h-585.1v-449.2h486.9v-65.2h-486.9v-463.3h585.1v-66.7h-665.9v1111.2h665.9M26133.3 7181.8h193.2c49.2 0 93.3 5.9 132.3 17.7 39 11.8 72 28.7 99 50.7 26.9 21.9 47.5 48.4 61.6 79.3 14.1 30.9 21.2 65.7 21.2 104.4 0 79-25.9 137.7-77.7 175.9-51.9 38.2-127.2 57.3-226.2 57.3h-203.4zm0-59.7v-502.5h-80.1v1111.2h283.5c128.3 0 224.1-24.8 287.4-74.3 63.4-49.4 95-122.1 95-217.9 0-42.4-7.3-81.1-21.9-116.2-14.7-35.1-35.8-65.8-63.3-92.3-27.4-26.4-60.6-48.1-99.3-65.1-38.8-17.1-82.5-28.2-131.1-33.4 12.5-7.9 23.8-18.4 33.7-31.4l382.5-480.6h-69.9c-8.4 0-15.6 1.5-21.6 4.7-6.1 3.1-11.9 8.3-17.7 15.7l-355.7 450.7c-8.9 11.5-18.5 19.7-28.7 24.4-10.2 4.7-26 7-47.5 7h-145.3M28314.8 7730.8V7664h-585v-449.2h486.9v-65.2h-486.9v-463.3h585v-66.7h-665.9v1111.2h665.9M34558.5 6950.5h-4729v235.6h4729v-235.6M10232.5 6950.5H5177.83v235.6h5054.67v-235.6" style="fill:#12192c;fill-opacity:1;fill-rule:nonzero;stroke:none" transform="matrix(.13333 0 0 -.13333 0 5333.333)"/>
</svg>
